<svg role="img" viewBox="0 0 24 24" xmlns="http://www.w3.org/2000/svg" id="Storyblok--Streamline-Simple-Icons" height="24" width="24">
  <desc>
    Storyblok Streamline Icon: https://streamlinehq.com
  </desc>
  <title>Storyblok</title>
  <path d="M13.953 11.462H9.088v2.34h4.748c0.281 0 0.538 -0.118 0.749 -0.305 0.187 -0.187 0.304 -0.468 0.304 -0.819a1.404 1.404 0 0 0 -0.257 -0.842c-0.188 -0.234 -0.398 -0.374 -0.679 -0.374zm0.164 -2.83c0.21 -0.14 0.304 -0.445 0.304 -0.843 0 -0.35 -0.094 -0.608 -0.257 -0.771a0.935 0.935 0 0 0 -0.608 -0.234H9.088v2.105h4.374c0.234 0 0.468 -0.117 0.655 -0.257zM21.251 0H2.89c-0.585 0 -1.053 0.468 -1.053 1.03v18.385c0 0.562 0.468 0.912 1.03 0.912H5.58V24l3.368 -3.65h12.304c0.562 0 0.913 -0.35 0.913 -0.935V1.053c0 -0.562 -0.351 -1.03 -0.936 -1.03zm-3.087 14.9a2.827 2.827 0 0 1 -1.006 1.03c-0.445 0.28 -0.936 0.538 -1.497 0.655 -0.562 0.14 -1.17 0.257 -1.801 0.257H5.579v-13.1h9.403c0.468 0 0.866 0.094 1.24 0.305 0.351 0.187 0.679 0.444 0.936 0.748 0.524 0.64 0.806 1.443 0.795 2.27 0 0.608 -0.164 1.192 -0.468 1.754a2.924 2.924 0 0 1 -1.403 1.263c0.748 0.21 1.333 0.585 1.778 1.123 0.42 0.561 0.631 1.286 0.631 2.199 0 0.584 -0.117 1.076 -0.35 1.497z" fill="#000000" stroke-width="1"></path>
</svg>